<svg width="383" height="153" viewBox="0 0 383 153" fill="none" xmlns="http://www.w3.org/2000/svg">
<g clip-path="url(#clip0_42_190)">
<path d="M103.225 124.885H92.9899V58.3592H77.6378V63.4766H82.7552V124.885H72.5205V130.002H103.225V124.885ZM149.261 104.415V99.2979H144.143V89.0633H139.026V83.9459H133.909V78.8286H123.674V83.9459H133.909V89.0633H139.026V99.2979H113.439V89.0633H118.557V83.9459H113.439V89.0633H108.322V99.2979H103.205V114.65H108.322V124.885H113.439V130.002H139.026V124.885H123.674V119.767H118.557V109.533H113.439V104.415H149.261ZM144.143 124.885V119.767H139.026V124.885H144.143ZM190.219 124.885H185.102V130.002H210.689V124.885H200.454V83.9459H190.219V78.8286H179.985V83.9459H174.867V89.0633H190.219V124.885ZM164.633 94.1806V89.0633H169.75V83.9459H154.398V89.0633H159.515V124.885H154.398V130.002H174.867V124.885H169.75V94.1806H164.633ZM169.75 89.0633V94.1806H174.867V89.0633H169.75ZM246.47 124.885H251.587V109.533H246.47V104.415H231.118V99.2979H220.883V89.0633H226.001V83.9459H236.235V89.0633H241.353V99.2979H246.47V83.9459H236.235V78.8286H226.001V83.9459H215.766V104.415H226.001V109.533H236.235V114.65H241.353V124.885H220.883V114.65H215.766V130.002H246.47V124.885ZM307.918 119.767H302.801V124.885H292.566V109.533H297.683V104.415H287.449V109.533H282.331V130.002H307.918V124.885H313.035V130.002H323.27V124.885H318.153V83.9459H307.918V78.8286H292.566V83.9459H287.449V89.0633H282.331V94.1806H287.449V99.2979H292.566V83.9459H302.801V89.0633H307.918V99.2979H302.801V104.415H307.918V119.767ZM338.622 68.5939H348.857V58.3592H338.622V68.5939ZM359.091 124.885H348.857V83.9459H333.505V89.0633H338.622V124.885H333.505V130.002H359.091V124.885Z" fill="#0038FF"/>
<rect x="23" y="25" width="30" height="30" stroke="#0038FF" stroke-width="10"/>
</g>
<defs>
<clipPath id="clip0_42_190">
<rect width="383" height="153" fill="white"/>
</clipPath>
</defs>
</svg>
